<?xml version="1.0" encoding="UTF-8" ?>
<!DOCTYPE svg PUBLIC "-//W3C//DTD SVG 1.1//EN" "http://www.w3.org/Graphics/SVG/1.1/DTD/svg11.dtd">
<svg width="233pt" height="47pt" viewBox="0 0 233 47" version="1.1" xmlns="http://www.w3.org/2000/svg">
<g id="#02020218">
<path fill="#020202" opacity="0.09" d=" M 21.32 19.90 C 22.69 15.84 27.47 14.92 30.87 17.01 C 31.33 17.99 31.78 18.98 32.23 19.97 C 28.59 20.00 24.96 20.07 21.32 19.90 Z" />
<path fill="#020202" opacity="0.09" d=" M 72.43 16.01 C 73.79 16.01 75.16 16.01 76.53 16.02 C 77.07 16.37 78.15 17.05 78.69 17.39 C 79.05 18.26 79.43 19.13 79.81 20.01 C 76.10 20.01 72.38 19.99 68.67 20.00 C 69.66 18.44 70.86 17.02 72.43 16.01 Z" />
<path fill="#020202" opacity="0.09" d=" M 111.05 18.14 C 113.16 16.14 116.47 14.99 119.02 16.91 C 121.96 18.31 121.19 22.11 121.02 24.73 C 119.01 27.74 115.32 27.96 112.15 26.93 C 110.17 24.36 109.22 21.07 111.05 18.14 Z" />
<path fill="#020202" opacity="0.09" d=" M 153.32 19.90 C 154.69 15.85 159.47 14.91 162.87 17.01 C 163.33 18.00 163.78 18.98 164.23 19.97 C 160.59 20.00 156.96 20.07 153.32 19.90 Z" />
<path fill="#020202" opacity="0.09" d=" M 181.44 16.01 C 182.79 16.01 184.14 16.01 185.50 16.02 C 186.05 16.36 187.14 17.04 187.68 17.38 C 188.05 18.26 188.43 19.13 188.81 20.01 C 185.10 20.01 181.38 19.99 177.67 20.00 C 178.66 18.43 179.86 17.01 181.44 16.01 Z" />
</g>
<g id="#ffffffff">
<path fill="#ffffff" opacity="1.00" d=" M 22.43 12.15 C 25.43 10.88 28.56 10.92 31.57 12.14 C 34.24 13.43 35.76 15.89 36.97 18.48 C 37.00 20.34 37.00 22.20 37.00 24.07 C 31.85 24.08 26.70 24.03 21.55 24.11 C 21.71 24.80 22.03 26.18 22.19 26.87 C 25.44 28.91 29.34 28.82 32.63 26.91 C 33.48 27.96 34.40 28.96 35.23 30.03 C 31.34 33.44 25.15 34.40 20.83 31.28 C 14.35 26.82 15.18 15.43 22.43 12.15 M 21.32 19.90 C 24.96 20.07 28.59 20.00 32.23 19.97 C 31.78 18.98 31.33 17.99 30.87 17.01 C 27.47 14.92 22.69 15.84 21.32 19.90 Z" />
<path fill="#ffffff" opacity="1.00" d=" M 68.37 13.23 C 71.00 11.84 74.12 10.20 77.10 11.53 C 81.03 12.43 84.03 15.82 84.79 19.72 C 84.78 21.17 84.77 22.62 84.77 24.08 C 79.36 24.12 73.95 23.92 68.54 24.22 C 70.24 29.29 76.54 29.16 80.47 26.88 C 81.27 27.78 82.07 28.69 82.86 29.60 C 79.70 33.69 73.65 33.90 69.26 31.90 C 67.75 30.62 66.38 29.20 65.12 27.68 C 63.04 22.81 63.83 16.44 68.37 13.23 M 72.43 16.01 C 70.86 17.02 69.66 18.44 68.67 20.00 C 72.38 19.99 76.10 20.01 79.81 20.01 C 79.43 19.13 79.05 18.26 78.69 17.39 C 78.15 17.05 77.07 16.37 76.53 16.02 C 75.16 16.01 73.79 16.01 72.43 16.01 Z" />
<path fill="#ffffff" opacity="1.00" d=" M 95.11 14.43 C 97.26 13.16 99.45 11.92 101.81 11.06 C 101.78 13.00 101.76 14.93 101.73 16.87 C 100.44 16.92 99.15 16.97 97.86 17.01 C 93.45 21.26 95.39 27.60 95.00 33.00 C 93.33 33.00 91.67 33.00 90.00 33.00 C 89.99 25.84 90.01 18.68 90.00 11.52 C 91.65 11.52 93.29 11.51 94.94 11.51 C 94.98 12.24 95.07 13.70 95.11 14.43 Z" />
<path fill="#ffffff" opacity="1.00" d=" M 112.58 11.48 C 115.57 9.98 118.19 12.93 120.81 13.93 C 120.49 10.51 123.93 11.75 125.97 11.45 C 126.10 18.31 126.05 25.17 126.03 32.04 C 126.14 36.20 122.72 39.61 118.96 40.84 C 114.73 41.52 110.24 41.22 106.62 38.71 C 107.18 37.34 107.76 35.98 108.31 34.60 C 110.62 36.10 113.36 36.22 116.03 36.06 C 119.62 36.52 122.60 32.82 122.18 29.39 C 120.59 30.20 119.01 31.04 117.51 32.01 C 115.47 32.18 113.42 32.12 111.38 32.01 C 109.10 30.57 106.62 28.94 105.88 26.18 C 103.29 20.61 106.64 13.12 112.58 11.48 M 111.05 18.14 C 109.22 21.07 110.17 24.36 112.15 26.93 C 115.32 27.96 119.01 27.74 121.02 24.73 C 121.19 22.11 121.96 18.31 119.02 16.91 C 116.47 14.99 113.16 16.14 111.05 18.14 Z" />
<path fill="#ffffff" opacity="1.00" d=" M 138.11 14.43 C 140.26 13.15 142.45 11.93 144.80 11.06 C 144.78 12.99 144.76 14.93 144.73 16.87 C 143.44 16.92 142.15 16.97 140.87 17.01 C 136.45 21.25 138.39 27.59 138.00 33.00 C 136.33 33.00 134.66 33.00 133.00 33.00 C 133.00 25.84 133.00 18.68 133.00 11.52 C 134.65 11.52 136.29 11.51 137.94 11.51 C 137.98 12.24 138.07 13.70 138.11 14.43 Z" />
<path fill="#ffffff" opacity="1.00" d=" M 154.42 12.15 C 157.43 10.87 160.56 10.92 163.57 12.15 C 166.24 13.43 167.76 15.89 168.97 18.48 C 169.00 20.34 169.00 22.21 169.00 24.07 C 163.85 24.08 158.70 24.03 153.55 24.11 C 153.71 24.80 154.03 26.18 154.19 26.86 C 157.45 28.91 161.35 28.83 164.65 26.90 C 165.43 27.95 166.32 28.92 167.19 29.89 C 166.36 30.56 165.52 31.21 164.68 31.85 C 159.08 34.84 151.65 32.64 149.04 26.72 C 147.53 21.32 148.90 14.66 154.42 12.15 M 153.32 19.90 C 156.96 20.07 160.59 20.00 164.23 19.97 C 163.78 18.98 163.33 18.00 162.87 17.01 C 159.47 14.91 154.69 15.85 153.32 19.90 Z" />
<path fill="#ffffff" opacity="1.00" d=" M 177.37 13.24 C 180.01 11.83 183.18 10.18 186.18 11.56 C 190.07 12.46 193.01 15.84 193.78 19.69 C 193.77 21.15 193.77 22.61 193.77 24.08 C 188.37 24.12 182.95 23.93 177.55 24.21 C 179.22 29.27 185.50 29.18 189.41 26.90 C 190.25 27.84 191.12 28.76 192.01 29.67 C 189.13 32.97 184.68 33.50 180.57 32.92 C 180.00 32.64 178.84 32.08 178.27 31.81 C 176.71 30.61 175.35 29.20 174.13 27.67 C 172.03 22.81 172.84 16.45 177.37 13.24 M 181.44 16.01 C 179.86 17.01 178.66 18.43 177.67 20.00 C 181.38 19.99 185.10 20.01 188.81 20.01 C 188.43 19.13 188.05 18.26 187.68 17.38 C 187.14 17.04 186.05 16.36 185.50 16.02 C 184.14 16.01 182.79 16.01 181.44 16.01 Z" />
<path fill="#ffffff" opacity="1.00" d=" M 207.36 12.13 C 210.58 10.12 214.40 11.51 216.75 14.21 C 217.04 14.80 217.63 15.98 217.93 16.58 C 218.15 22.05 218.00 27.53 218.04 33.00 C 216.41 33.00 214.78 33.00 213.16 33.00 C 213.13 27.98 213.26 22.95 213.00 17.93 C 212.64 17.44 211.92 16.46 211.56 15.97 C 209.85 15.98 208.14 15.89 206.45 16.08 C 205.20 16.99 204.45 18.39 204.05 19.85 C 203.89 24.23 204.05 28.62 204.00 33.00 C 202.33 33.00 200.66 33.00 199.00 33.00 C 199.00 25.84 199.00 18.69 199.00 11.53 C 200.60 11.52 202.21 11.51 203.82 11.48 C 203.98 12.17 204.30 13.56 204.46 14.25 C 205.45 13.57 206.41 12.87 207.36 12.13 Z" />
<path fill="#ffffff" opacity="1.00" d=" M 39.21 11.38 C 41.02 11.50 42.83 11.59 44.64 11.76 C 45.17 13.70 45.81 15.61 46.71 17.42 C 47.20 18.81 47.73 20.19 48.25 21.57 C 48.80 22.82 49.32 24.08 49.83 25.34 C 52.94 21.19 53.80 15.92 56.25 11.42 C 57.90 11.49 59.56 11.54 61.21 11.58 C 60.55 13.18 59.93 14.80 59.26 16.40 C 58.63 18.10 57.98 19.78 57.27 21.44 C 56.73 22.82 56.20 24.19 55.71 25.58 C 54.95 27.21 54.30 28.88 53.72 30.58 C 53.46 31.19 52.94 32.41 52.68 33.01 C 51.04 33.02 49.40 33.05 47.77 32.96 C 44.61 25.91 41.91 18.63 39.21 11.38 Z" />
</g>
</svg>
